<?xml version="1.0" encoding="UTF-8" standalone="no"?>
<!-- Created with Inkscape (http://www.inkscape.org/) -->

<svg
   xmlns:dc="http://purl.org/dc/elements/1.1/"
   xmlns:cc="http://creativecommons.org/ns#"
   xmlns:rdf="http://www.w3.org/1999/02/22-rdf-syntax-ns#"
   xmlns:svg="http://www.w3.org/2000/svg"
   xmlns="http://www.w3.org/2000/svg"
   xmlns:sodipodi="http://sodipodi.sourceforge.net/DTD/sodipodi-0.dtd"
   xmlns:inkscape="http://www.inkscape.org/namespaces/inkscape"
   width="210mm"
   height="297mm"
   viewBox="0 0 210 297"
   version="1.1"
   id="svg8"
   inkscape:version="0.92.4 (5da689c313, 2019-01-14)"
   sodipodi:docname="drawing3.svg">
  <defs
     id="defs2" />
  <sodipodi:namedview
     id="base"
     pagecolor="#ffffff"
     bordercolor="#666666"
     borderopacity="1.0"
     inkscape:pageopacity="0.0"
     inkscape:pageshadow="2"
     inkscape:zoom="2.8"
     inkscape:cx="400"
     inkscape:cy="851.42857"
     inkscape:document-units="mm"
     inkscape:current-layer="layer1"
     showgrid="false"
     inkscape:window-width="3200"
     inkscape:window-height="1675"
     inkscape:window-x="-13"
     inkscape:window-y="-13"
     inkscape:window-maximized="1" />
  <metadata
     id="metadata5">
    <rdf:RDF>
      <cc:Work
         rdf:about="">
        <dc:format>image/svg+xml</dc:format>
        <dc:type
           rdf:resource="http://purl.org/dc/dcmitype/StillImage" />
        <dc:title></dc:title>
      </cc:Work>
    </rdf:RDF>
  </metadata>

    <path
       style="fill:none;stroke:#000000;stroke-width:0.26458332px;stroke-linecap:butt;stroke-linejoin:miter;stroke-opacity:1"
       d="m 108.57366,65.584077 c 1.23017,2.83886 0.7845,3.079372 3.59077,4.630208 0.74769,0.413198 1.01744,0.225375 1.6064,0.09449 0.15679,-0.03484 0.3195,-0.04555 0.47247,-0.09449 0.63568,-0.203417 1.2752,-0.401402 1.88988,-0.661458 0.20919,-0.0885 0.37798,-0.251984 0.56697,-0.377976 0.21812,-0.145415 1.06722,-0.702683 1.22842,-0.850447 0.0229,-0.02101 0.79321,-0.949487 0.85045,-1.039434 0.11344,-0.178263 0.17477,-0.385781 0.28348,-0.566965 0.081,-0.135046 0.19612,-0.246936 0.28348,-0.377976 0.0807,-0.121105 0.41243,-0.670325 0.47247,-0.850448 0.0508,-0.152365 0.063,-0.314978 0.0945,-0.472469 0.0315,-0.157491 0.063,-0.314981 0.0945,-0.472469 0.0315,-0.157491 0.0596,-0.315688 0.0945,-0.472472 0.0282,-0.126778 0.0816,-0.24875 0.0945,-0.377976 0.0188,-0.18805 0,-0.377975 0,-0.566965 0,-0.188986 0.0157,-0.378629 0,-0.566962 -0.0159,-0.190934 -0.0602,-0.37846 -0.0945,-0.566965 -0.0287,-0.15802 -0.063,-0.314981 -0.0945,-0.472472 -0.0315,-0.157488 -0.0483,-0.318635 -0.0945,-0.472469 -0.0487,-0.162467 -0.126,-0.314981 -0.18899,-0.472469 -0.063,-0.157491 -0.126,-0.314981 -0.18899,-0.472472 -0.063,-0.15749 -0.11313,-0.320754 -0.18899,-0.472469 -0.0821,-0.164274 -0.18899,-0.314981 -0.28348,-0.472472 -0.26697,-0.444947 -0.50657,-0.929912 -0.85045,-1.322916 -0.11733,-0.134094 -0.24007,-0.265144 -0.37797,-0.377976 -0.88337,-0.722752 -0.40687,-0.204168 -1.13393,-0.850445 -0.13318,-0.118377 -0.24388,-0.260646 -0.37798,-0.377978 -0.96977,-0.848546 0.14482,0.239318 -0.66146,-0.566963 -0.0945,-0.0945 -0.18899,-0.188989 -0.28348,-0.283482 -0.0945,-0.09449 -0.17474,-0.205809 -0.28348,-0.283483 -0.003,-0.0021 -0.74697,-0.37284 -0.75595,-0.377976 -0.01,-0.0057 -0.56293,-0.376245 -0.56697,-0.377975 -0.11937,-0.05116 -0.25198,-0.063 -0.37797,-0.0945 -0.25199,-0.063 -0.50621,-0.117631 -0.75596,-0.188987 -1.54874,-0.442497 0.29707,0.01352 -1.03943,-0.283482 -0.12678,-0.02817 -0.24911,-0.07839 -0.37798,-0.09449 -0.12502,-0.01564 -0.25198,0 -0.37797,0 -0.15749,0 -0.31498,0 -0.47247,0 -0.18899,0 -0.37798,0 -0.56697,0 -0.12599,0 -0.25296,-0.01564 -0.37797,0 -0.26258,0.03282 -0.41739,0.119253 -0.66146,0.188987 -0.24975,0.07136 -0.50397,0.125992 -0.75595,0.188989 -0.126,0.0315 -0.2512,0.06632 -0.37798,0.09449 -0.15679,0.03484 -0.31863,0.04835 -0.47247,0.09449 -0.16247,0.04874 -0.31155,0.13535 -0.47247,0.188989 -0.12321,0.04107 -0.25638,0.04889 -0.37798,0.09449 -0.13189,0.04946 -0.2485,0.133501 -0.37797,0.188989 -0.0916,0.03923 -0.18771,0.06713 -0.28349,0.09449 -0.12487,0.03568 -0.2586,0.04334 -0.37797,0.09449 -0.10439,0.04474 -0.18899,0.125992 -0.28349,0.188989 -0.18898,0.125992 -0.36975,0.265285 -0.56696,0.377976 -0.1223,0.06989 -0.26335,0.107114 -0.37797,0.188989 -0.10875,0.07767 -0.18202,0.196514 -0.28349,0.283483 -0.11957,0.102491 -0.25945,0.179774 -0.37797,0.28348 -0.1341,0.117332 -0.25199,0.251983 -0.37798,0.377978 -0.15749,0.157488 -0.32347,0.306919 -0.47247,0.472469 -0.2226,0.247333 -0.69689,0.895064 -0.85045,1.133928 -0.13732,0.213614 -0.24488,0.445185 -0.37797,0.661458 -0.003,0.0053 -0.75481,1.131803 -0.75595,1.13393 -0.11373,0.211209 -0.18899,0.44097 -0.28349,0.661458 -0.0945,0.220486 -0.18898,0.440971 -0.28348,0.661459 -0.09449,0.220485 -0.2028,0.435551 -0.283482,0.661458 -0.07712,0.21595 -0.125992,0.44097 -0.188987,0.661458 -0.063,0.220486 -0.121552,0.442288 -0.188989,0.661459 -0.05858,0.190402 -0.140671,0.3737 -0.188987,0.566965 -0.04647,0.185872 -0.06536,0.377594 -0.0945,0.566962 -0.03453,0.224454 -0.176184,1.225349 -0.188987,1.417413 -0.01466,0.219995 0,0.44097 0,0.661458 0,0.503968 0,1.007935 0,1.511903 0,0.251984 -0.01479,0.504404 0,0.755952 0.01675,0.284736 0.063,0.566965 0.09449,0.850447 0.0315,0.283483 0.02708,0.573302 0.09449,0.850448 0.582588,2.395085 0.554254,2.1752 1.322922,3.96875 0.0945,0.220485 0.16329,0.453858 0.28348,0.661458 0.55942,0.966272 1.23562,1.80539 2.07887,2.551338 0.34025,0.300987 0.75959,0.498596 1.13393,0.755954 0.63366,0.435639 1.23564,0.918829 1.88988,1.322916 0.35575,0.219726 1.52061,0.795163 2.07887,0.944939 2.22354,0.596561 3.35207,0.94494 5.57515,0.94494 1.19858,0 2.4098,0.01572 3.59077,-0.188986 2.52259,-0.43725 4.61941,-1.457563 6.80357,-2.740329 0.91905,-0.539756 1.81118,-1.132568 2.64583,-1.795386 0.24667,-0.195882 0.38453,-0.499187 0.56697,-0.755952 0.66808,-0.940268 1.51167,-1.782683 1.98437,-2.834822 0.91222,-2.030421 1.0477,-3.614452 0.94494,-5.669643 -0.03,-0.601017 -0.10388,-1.199665 -0.18899,-1.795385 -0.0411,-0.287481 -0.12599,-0.566965 -0.18898,-0.850448 -0.063,-0.283482 -0.12599,-0.566965 -0.18899,-0.850447 -0.16312,-0.734031 -0.21562,-1.067647 -0.47247,-1.795386 -0.0798,-0.226206 -0.20763,-0.433888 -0.28348,-0.661459 -0.0821,-0.246411 -0.11947,-0.50569 -0.18899,-0.755951 -0.30606,-1.101826 -0.237,-0.750485 -0.56696,-1.795389 -0.099,-0.313584 -0.17949,-0.632965 -0.28349,-0.94494 -0.26036,-0.78109 -0.63227,-1.50853 -0.94494,-2.267855 -0.42727,-1.037651 -0.0973,-0.523915 -0.75595,-1.511906 -0.3006,-0.450898 -0.63648,-0.877361 -0.94494,-1.322917 -0.12929,-0.186748 -0.23415,-0.39117 -0.37798,-0.566965 -0.14103,-0.172378 -0.32197,-0.308287 -0.47247,-0.472469 -0.19623,-0.214069 -0.37797,-0.440973 -0.56696,-0.661458 -0.18899,-0.220488 -0.39818,-0.425154 -0.56696,-0.661459 -0.14761,-0.206644 -0.23343,-0.452667 -0.37798,-0.661458 -0.14003,-0.202266 -0.32248,-0.371972 -0.47247,-0.566965 -0.16521,-0.214765 -0.30507,-0.4484 -0.47247,-0.661458 -0.17942,-0.228344 -0.3947,-0.427673 -0.56697,-0.661459 -0.92219,-1.25155 -0.51638,-0.791874 -1.13392,-1.795385 -0.12495,-0.203039 -0.5481,-0.790041 -0.66146,-1.039437 -0.0824,-0.181353 -0.12599,-0.377976 -0.18899,-0.566962 -0.0945,-0.18899 -0.18899,-0.377976 -0.28348,-0.566966 -0.0945,-0.188989 -0.18231,-0.381468 -0.28349,-0.566965 -0.0879,-0.161237 -0.21755,-0.301048 -0.28348,-0.472469 -0.0932,-0.242427 -0.12599,-0.503967 -0.18899,-0.755951 -0.063,-0.251984 -0.12599,-0.503971 -0.18898,-0.755955 -0.063,-0.251983 -0.13457,-0.501978 -0.18899,-0.755951 -0.23425,-1.093134 0.0525,-0.02103 -0.18899,-1.228424 -0.0509,-0.254693 -0.15466,-0.49849 -0.18899,-0.755951 -0.0291,-0.218551 0.0147,-0.44146 0,-0.661458 -0.0625,-0.937234 -0.15727,-0.570233 -0.0945,-1.511906 0.0148,-0.222229 0.0774,-0.439389 0.0945,-0.661459 0.0127,-0.164875 -0.008,-1.129495 0,-1.22842 0.0147,-0.191032 0.063,-0.377976 0.0945,-0.566965 0.2357,-1.41423 -0.0542,0.352242 0.18898,-1.228424 0.0583,-0.378732 0.12045,-0.756917 0.18899,-1.133927 0.0287,-0.15802 0.0437,-0.320104 0.0945,-0.472472 0.0445,-0.133633 0.13177,-0.249253 0.18898,-0.377976 0.0689,-0.155001 0.126,-0.314978 0.18899,-0.472469 0.18857,-0.471416 0.39346,-0.940276 0.56697,-1.41741 0.13615,-0.374435 0.25198,-0.755954 0.37797,-1.13393 0.20563,-0.616873 0.15313,-0.548457 0.47247,-1.133927 0.088,-0.161237 0.20748,-0.305271 0.28349,-0.472472 0.0824,-0.181354 0.12091,-0.379746 0.18898,-0.566963 0.11594,-0.31882 0.2402,-0.634936 0.37798,-0.944941 0.0572,-0.128722 0.13178,-0.249253 0.18899,-0.377976 0.0689,-0.155003 0.11313,-0.320756 0.18899,-0.47247 0.16427,-0.328547 0.38857,-0.623839 0.56696,-0.944941 0.25472,-0.458502 0.10972,-0.332744 0.47247,-0.755952 0.17394,-0.202926 0.39586,-0.361642 0.56696,-0.566964 0.0727,-0.08725 0.11629,-0.196237 0.18899,-0.283482 0.0855,-0.102662 0.19793,-0.180821 0.28349,-0.283483 0.33786,-0.405437 0.0207,-0.190511 0.47246,-0.566964 0.25115,-0.209291 0.36739,-0.209934 0.66146,-0.377976 0.19721,-0.112691 0.36381,-0.276398 0.56697,-0.377976 1.06012,-0.530062 -0.71496,0.503041 0.66146,-0.283482 0.0986,-0.05635 0.17909,-0.144252 0.28348,-0.188989 0.23874,-0.102316 0.50954,-0.106851 0.75595,-0.188988 0.0668,-0.02227 0.12359,-0.06834 0.18899,-0.09449 0.0925,-0.03699 0.18899,-0.063 0.28348,-0.09449 0.0945,-0.0315 0.18523,-0.07812 0.28348,-0.09449 0.0932,-0.01553 0.18899,0 0.28348,0 0.0945,0 0.18899,0 0.28349,0 0.25198,0 0.50396,0 0.75595,0 0.28348,0 0.56696,0 0.85045,0 0.0945,0 0.19027,-0.01553 0.28348,0 0.1965,0.03275 0.37162,0.14992 0.56696,0.188988 0.0618,0.01235 0.12787,-0.01528 0.18899,0 0.27406,0.06851 0.11058,0.07372 0.28348,0.188988 0.0476,0.208186 0.19439,0.04995 0.28349,0.09449 0.0181,0.009 0.36893,0.359889 0.37797,0.377977 0.0202,0.04036 0,0.435115 0,0.47247 0,0.188988 0,0.377976 0,0.566964 0,0.063 0.0153,0.127873 0,0.188988 -0.0171,0.06833 -0.063,0.125992 -0.0945,0.188988 -0.0315,0.063 -0.063,0.125992 -0.0945,0.188988 -0.0315,0.063 -0.063,0.125992 -0.0945,0.188989 -0.0315,0.063 -0.063,0.125992 -0.0945,0.188988 -0.0315,0.063 -0.0554,0.130385 -0.0945,0.188988 -0.0247,0.03706 -0.0746,0.05465 -0.0945,0.09449 -0.0446,0.08909 -0.0575,0.191001 -0.0945,0.283482 -0.0262,0.06539 -0.0807,0.119924 -0.0945,0.188988 -0.0185,0.09266 0.0155,0.190274 0,0.283482 -0.0412,0.247389 -0.19321,0.435772 -0.28348,0.661459 -0.037,0.09248 -0.063,0.188988 -0.0945,0.283481 -0.0315,0.0945 -0.075,0.185812 -0.0945,0.283483 -0.10097,0.504824 0.17956,-0.212667 -0.0945,0.47247 -0.0262,0.06539 -0.0683,0.123594 -0.0945,0.188988 -0.074,0.184963 -0.12599,0.377976 -0.18899,0.566964 -0.063,0.188988 -0.14577,0.372497 -0.18898,0.566965 -0.0416,0.187032 -0.0733,0.376541 -0.0945,0.566963 -0.0104,0.09392 0,0.188989 0,0.283483 0,0.314981 0,0.629959 0,0.94494 0,0.125992 0,0.251984 0,0.377976 0,0.125992 0.0156,0.252958 0,0.377976 -0.0161,0.128868 -0.063,0.251984 -0.0945,0.377976 -0.0315,0.125994 -0.0534,0.254772 -0.0945,0.377978 -0.0223,0.06681 -0.0683,0.123592 -0.0945,0.188987 -0.074,0.184962 -0.126,0.377976 -0.18899,0.566965 -0.0945,0.283482 -0.18899,0.566965 -0.28348,0.850445 -0.0315,0.0945 -0.063,0.188989 -0.0945,0.283482 -0.0315,0.0945 -0.075,0.185812 -0.0945,0.283483 -0.0124,0.06177 0.0123,0.127217 0,0.188989 -0.34257,1.027705 0.0498,-0.249015 -0.0945,0.472469 -0.0391,0.195342 -0.14992,0.371623 -0.18899,0.566965 -0.0124,0.06177 0.0123,0.127214 0,0.188987 -0.0195,0.09767 -0.0781,0.185232 -0.0945,0.283482 -0.0155,0.09321 0,0.188989 0,0.283483 0,0.220488 0,0.440973 0,0.661458 0,0.283483 0,0.566965 0,0.850448 0,0.09449 -0.0134,0.189936 0,0.283482 0.0367,0.257128 0.15226,0.498822 0.18899,0.755952 0.0134,0.09354 -0.0155,0.190272 0,0.283482 0.0164,0.09825 0.063,0.188987 0.0945,0.283483 0.0315,0.125992 0.0761,0.249412 0.0945,0.377976 0.0134,0.09354 -0.0155,0.190272 0,0.283482 0.0164,0.09825 0.063,0.188987 0.0945,0.28348 0.0315,0.0945 0.063,0.188989 0.0945,0.283483 0.0315,0.0945 0.0671,0.187711 0.0945,0.283482 0.0357,0.124873 0.0534,0.254773 0.0945,0.377976 0.0484,0.145283 0.21159,0.364649 0.28348,0.472472 0.12599,0.188986 0.25198,0.377975 0.37798,0.566962 0.12599,0.188989 0.23256,0.392475 0.37797,0.566965 0.0855,0.102661 0.18899,0.188989 0.28348,0.283483 0.0945,0.09449 0.18082,0.197932 0.28348,0.283482 0.0873,0.0727 0.19107,0.122978 0.28349,0.188987 0.12815,0.09154 0.24442,0.200014 0.37797,0.283482 0.11946,0.07466 0.25199,0.125992 0.37798,0.188989 0.12599,0.063 0.25198,0.125992 0.37798,0.188987 0.12599,0.063 0.24305,0.148513 0.37797,0.188989 0.18352,0.05505 0.3776,0.06536 0.56697,0.09449 0.21054,0.03239 1.2412,0.178623 1.41741,0.18899 0.77813,0.04577 1.43759,-0.03823 2.17336,-0.283483 0.25531,-0.0851 0.51525,-0.163129 0.75595,-0.283482 0.26578,-0.13289 0.49696,-0.326787 0.75595,-0.472469 0.24555,-0.138121 0.51438,-0.23303 0.75596,-0.377976 0.43961,-0.263769 0.83647,-0.618318 1.22842,-0.944941 0.18899,-0.157491 0.37797,-0.314981 0.56696,-0.472472 0.18899,-0.157488 0.39301,-0.298516 0.56697,-0.472469 0.30794,-0.307943 0.44246,-0.579953 0.66145,-0.944941 0.0945,-0.15749 0.18899,-0.314981 0.28349,-0.472469 0.0945,-0.15749 0.20134,-0.308197 0.28348,-0.472472 0.18382,-0.367649 0.21709,-0.546589 0.28348,-0.94494 0.0366,-0.219695 0.0786,-0.439299 0.0945,-0.661459 0.0157,-0.219924 0,-0.44097 0,-0.661458 0,-0.220485 0.0146,-0.44146 0,-0.661458 -0.0153,-0.228973 -0.1523,-1.160585 -0.18899,-1.41741 -0.0315,-0.220486 -0.0444,-0.444437 -0.0945,-0.661459 -0.0448,-0.194109 -0.1304,-0.376563 -0.18898,-0.566965 -0.0674,-0.219167 -0.12156,-0.442288 -0.18899,-0.661458 -0.13329,-0.433179 -0.28185,-0.779822 -0.37798,-1.228421 -0.0467,-0.217781 -0.0478,-0.44368 -0.0945,-0.661458 -0.0961,-0.44844 -0.26675,-0.877993 -0.37798,-1.322917 -0.066,-0.264139 -0.14686,-0.786693 -0.18899,-1.039435 -0.063,-0.377977 -0.12599,-0.755953 -0.18898,-1.133929 -0.0315,-0.188988 -0.063,-0.377976 -0.0945,-0.566964 -0.0315,-0.188988 -0.0786,-0.376031 -0.0945,-0.566964 -0.0157,-0.188336 0,-0.377976 0,-0.566965 0,-0.188988 0,-0.377976 0,-0.566964 0,-0.15749 0,-0.31498 0,-0.47247 0,-0.09449 -0.0117,-0.189718 0,-0.283482 0.0398,-0.318738 0.12599,-0.629961 0.18899,-0.944941 0.0315,-0.15749 0.0483,-0.318634 0.0945,-0.47247 0.0975,-0.324937 0.26204,-0.626121 0.37798,-0.94494 0.1176,-0.323416 0.22145,-0.726393 0.37797,-1.039435 0.18226,-0.36451 0.32957,-0.533916 0.56697,-0.850446 0.0945,-0.125992 0.18098,-0.258401 0.28348,-0.377977 0.087,-0.101463 0.18899,-0.188988 0.28348,-0.283482 0.22049,-0.220486 0.44097,-0.440972 0.66146,-0.661458 0.12599,-0.125992 0.23733,-0.268585 0.37798,-0.377976 0.14497,-0.112759 0.31123,-0.195535 0.47246,-0.283482 0.4941,-0.269505 0.55108,-0.277126 1.03944,-0.472471 0.15749,-0.063 0.31155,-0.135349 0.47247,-0.188988 0.71235,-0.237451 1.43303,-0.366707 2.17336,-0.47247 0.22049,-0.0315 0.43939,-0.07741 0.66146,-0.09449 0.18843,-0.01449 0.37798,0 0.56697,0 0.22048,0 0.44153,-0.01571 0.66145,0 0.22216,0.01587 0.44098,0.063 0.66146,0.09449 0.22049,0.0315 0.44132,0.06063 0.66146,0.09449 0.18937,0.02913 0.37798,0.063 0.56697,0.09449 0.18898,0.0315 0.38211,0.04408 0.56696,0.09449 1.07486,0.293145 -10e-4,0.0534 0.75595,0.377976 0.11937,0.05116 0.25638,0.04889 0.37798,0.09449 0.34402,0.129008 0.64238,0.365261 0.94494,0.566965 0.0945,0.063 0.21254,0.100306 0.28348,0.188988 0.0622,0.07778 0.0499,0.194392 0.0945,0.283482 0.0508,0.101578 0.126,0.188988 0.18899,0.283482 0.12599,0.188988 0.23609,0.389601 0.37798,0.566964 0.0557,0.06957 0.13957,0.114861 0.18899,0.188988 0.0781,0.117206 0.12599,0.251985 0.18899,0.377977 0.063,0.125992 0.13952,0.246081 0.18898,0.377976 0.043,0.114788 0.18083,0.768805 0.18899,0.850446 0.0157,0.156709 0,0.314981 0,0.472471 0,0.283482 0.0257,0.568128 0,0.850446 -0.01,0.108046 -0.15003,0.896592 -0.18899,1.039434 -0.0524,0.192192 -0.13174,0.376155 -0.18898,0.566965 -0.25457,0.848554 0.0808,-0.138639 -0.18899,0.850446 -0.0524,0.192192 -0.12091,0.379747 -0.18899,0.566964 -0.11594,0.31882 -0.2402,0.634936 -0.37798,0.944941 -0.0572,0.128722 -0.13952,0.246082 -0.18899,0.377976 -0.0456,0.121601 -0.0489,0.256375 -0.0945,0.377976 -0.0495,0.131895 -0.13953,0.246082 -0.18899,0.377976 -0.0456,0.121601 -0.063,0.251985 -0.0945,0.377977 -0.063,0.251984 -0.12599,0.503968 -0.18899,0.755952 -0.0315,0.125992 -0.0489,0.256376 -0.0945,0.377976 -0.0989,0.26379 -0.26356,0.498507 -0.37798,0.755952 -0.66177,1.488979 0.1772,-0.378045 -0.28348,0.850447 -0.0495,0.131895 -0.1335,0.248502 -0.18899,0.377976 -0.0971,0.226565 -0.12049,0.421704 -0.18899,0.661458 -0.0274,0.09577 -0.0781,0.185232 -0.0945,0.283483 -0.0155,0.09321 0.0155,0.190272 0,0.283482 -0.0164,0.09825 -0.0671,0.187709 -0.0945,0.283483 -0.0357,0.124873 -0.063,0.251984 -0.0945,0.377976 -0.2954,1.181613 0.0821,-0.287481 -0.18899,0.661458 -0.10676,0.373674 -0.18922,0.756883 -0.28348,1.133927 -0.25818,1.032712 -0.47647,2.070008 -0.66146,3.118305 -0.0612,0.3468 -0.14784,0.689687 -0.18899,1.039435 -0.0221,0.187692 0,0.377975 0,0.566962 0,0.188989 -0.0171,0.378754 0,0.566965 0.0219,0.241152 0.13482,0.606676 0.18899,0.850448 0.0697,0.313568 0.10447,0.635039 0.18899,0.94494 0.19303,0.707793 0.12853,0.383697 0.37797,0.944939 0.0689,0.155003 0.11314,0.320757 0.18899,0.472471 0.36682,0.733645 0.1713,0.217385 0.56697,0.850445 0.0746,0.119454 0.10447,0.265287 0.18899,0.377979 0.14475,0.193003 0.66425,0.637468 0.85044,0.755951 0.17826,0.11344 0.37798,0.188987 0.56697,0.283483 0.71365,0.356828 0.59404,0.3375 1.5119,0.566962 0.18173,0.04543 1.84422,0.36463 1.98438,0.377979 0.59104,0.05629 1.40642,-0.03366 1.98437,-0.0945 0.25255,-0.02658 0.50694,-0.04469 0.75595,-0.09449 1.28247,-0.256492 2.53072,-0.711684 3.68527,-1.322916 0.29146,-0.1543 1.32567,-0.724368 1.6064,-0.944941 0.21016,-0.165124 0.37057,-0.38568 0.56696,-0.566965 0.21339,-0.196969 0.43978,-0.379383 0.66146,-0.566962 0.1878,-0.158907 0.40948,-0.283483 0.56697,-0.472472 0.16257,-0.195085 0.24065,-0.447845 0.37797,-0.661459 0.46361,-0.721158 0.53078,-0.595394 0.85045,-1.417409 0.16549,-0.425551 0.39003,-1.328209 0.47247,-1.795386 0.0441,-0.250082 0.0648,-0.503748 0.0945,-0.755954 0.0333,-0.283271 0.0795,-0.565613 0.0945,-0.850445 0.0166,-0.314545 0,-0.62996 0,-0.944941 0,-0.283483 0.0149,-0.567357 0,-0.850448 -0.0157,-0.298227 -0.12076,-1.242525 -0.18899,-1.606399 -0.10703,-0.570846 -0.2825,-1.127998 -0.37798,-1.700892 -0.0343,-0.205857 -0.1717,-1.63118 -0.18898,-1.795386 -0.0299,-0.28366 -0.0612,-0.567174 -0.0945,-0.850448 -0.0297,-0.252206 -0.0804,-0.502396 -0.0945,-0.755951 -0.0175,-0.314495 0,-0.62996 0,-0.944941 0,-0.283482 -0.0157,-0.5674 0,-0.850446 0.0158,-0.284788 0.063,-0.566964 0.0945,-0.850446 0.0261,-0.235033 0.12676,-1.2215 0.18899,-1.511905 0.0481,-0.224219 0.12599,-0.440972 0.18899,-0.661458 0.063,-0.220487 0.11186,-0.445509 0.18898,-0.661459 0.0807,-0.225907 0.19122,-0.440029 0.28349,-0.661458 0.0652,-0.156574 0.10776,-0.32356 0.18899,-0.47247 0.10876,-0.199402 0.25198,-0.377977 0.37797,-0.566965 0.4022,-0.603294 0.31477,-0.55245 0.85045,-1.039434 0.18203,-0.165483 0.35337,-0.350417 0.56696,-0.47247 0.23366,-0.133521 0.50711,-0.181016 0.75596,-0.283483 0.5737,-0.236231 1.1187,-0.541463 1.70089,-0.755952 0.30857,-0.113685 0.63296,-0.179491 0.94494,-0.283482 0.25531,-0.0851 0.49777,-0.207546 0.75595,-0.283482 0.2786,-0.08194 0.56628,-0.129163 0.85045,-0.188988 1.17853,-0.248113 0.66661,-0.150686 1.79538,-0.283482 0.25221,-0.02967 0.50236,-0.08115 0.75596,-0.09449 0.87865,-0.04624 1.20517,0.01506 2.07886,0.09449 0.25349,0.02304 1.57089,0.135822 1.88989,0.188988 0.28644,0.04774 0.56777,0.122475 0.85044,0.188988 0.80683,0.189843 0.61875,0.143252 1.32292,0.377976 0.41903,0.139678 0.64498,0.202661 1.03943,0.377976 0.12873,0.05721 0.26078,0.110851 0.37798,0.188988 0.0741,0.04942 0.11942,0.133334 0.18899,0.188988 0.11048,0.171484 0.32554,0.173285 0.47247,0.283482 0.12033,0.09025 0.32946,0.343101 0.37797,0.472471 0.0564,0.150383 0.0701,0.313728 0.0945,0.47247 0.0386,0.250992 0.0945,0.502007 0.0945,0.755952 0,1.044404 -0.45897,1.989774 -0.85044,2.929316 -0.15749,0.377976 -0.29528,0.764778 -0.47247,1.133928 -0.88288,1.839326 -0.414,0.61442 -1.32292,2.362351 -0.20806,0.40012 -0.34661,0.834938 -0.56696,1.228423 -0.002,0.0044 -1.50704,2.259861 -1.51191,2.267857 -0.44133,0.725035 -0.84233,1.619864 -1.22842,2.362351 -0.18209,0.350157 -0.42601,0.670793 -0.56697,1.039434 -0.49678,1.299292 -0.87132,2.758972 -0.94494,4.157739 -0.0156,0.296606 0.0698,1.711582 0.18899,2.267858 0.048,0.224218 0.12599,0.44097 0.18899,0.661458 0.063,0.220485 0.0929,0.453255 0.18899,0.661458 0.13359,0.289457 0.55242,0.785024 0.75595,1.039434 0.12599,0.157491 0.23536,0.329856 0.37798,0.472469 0.40164,0.401646 1.28157,0.941253 1.79538,1.133931 0.2432,0.0912 0.50066,0.14112 0.75596,0.188986 0.55877,0.104772 0.87132,0.145624 1.41741,0 0.26003,-0.06934 0.50217,-0.193913 0.75595,-0.283482 1.11359,-0.393031 0.69911,-0.137867 1.79539,-0.850445 0.32236,-0.20954 0.63324,-0.436348 0.94494,-0.661459 0.46952,-0.3391 0.99506,-0.7327 1.41741,-1.13393 0.41983,-0.398843 0.80858,-0.829577 1.22842,-1.22842 0.21054,-0.200012 0.45611,-0.361622 0.66146,-0.566965 0.20534,-0.205341 0.37797,-0.440974 0.56696,-0.661459 0.18899,-0.220485 0.38755,-0.433112 0.56697,-0.661458 0.1674,-0.213058 0.30726,-0.446691 0.47247,-0.661458 0.14999,-0.19499 0.32048,-0.373523 0.47247,-0.566965 1.48984,-1.896161 -0.24816,0.344021 0.94494,-1.511904 0.13303,-0.206936 0.32247,-0.371972 0.47247,-0.566965 0.60667,-0.788678 0.46653,-0.800388 1.32291,-1.606399 0.49224,-0.463275 0.64257,-0.510267 1.13393,-0.755951 0.12599,-0.063 0.2485,-0.133501 0.37798,-0.18899 0.0915,-0.03924 0.191,-0.0575 0.28348,-0.09449 0.24419,-0.09767 0.15789,-0.146923 0.47247,-0.09449 0.0817,0.0136 0.38434,0.122888 0.47247,0.188986 0.0713,0.05345 0.12599,0.125992 0.18899,0.18899 0.18917,0.189166 0.33208,0.314261 0.47247,0.566965 0.0824,0.148275 0.13102,0.31306 0.18899,0.472469 0.18887,0.519387 0.23969,0.659183 0.28348,1.228423 0.0145,0.188431 0,0.377976 0,0.566962 0,0.251987 0,0.503971 0,0.755955 0,0.220485 0,0.44097 0,0.661458 0,0.188987 0.0145,0.378531 0,0.566962 -0.12122,1.575875 -0.0945,-0.178421 -0.0945,1.228424 0,0.472471 0,0.944941 0,1.41741 0,0.188989 0.0157,0.378629 0,0.566965 -0.0159,0.190934 -0.0786,0.376031 -0.0945,0.566965 -0.0157,0.188335 0.0171,0.378751 0,0.566965 -0.0146,0.159948 -0.0799,0.31252 -0.0945,0.472469 -0.0171,0.188211 0.0157,0.378629 0,0.566965 -0.0159,0.190931 -0.0771,0.376155 -0.0945,0.566962 -0.0143,0.156845 0,0.314981 0,0.472472 0,0.503968 0,1.007936 0,1.511903 0,0.188989 0,0.377979 0,0.566965 0,0.18899 0.0157,0.37863 0,0.566965 -0.0159,0.190934 -0.0786,0.376031 -0.0945,0.566965 -0.0157,0.188333 0,0.377976 0,0.566963 0,0.535466 0,1.070933 0,1.606399 0,0.220488 0.0157,0.441534 0,0.661458 -0.0159,0.22216 -0.063,0.440973 -0.0945,0.661459 -0.0315,0.220487 -0.0579,0.441764 -0.0945,0.661458 -0.0575,0.345276 -0.13144,0.694158 -0.18899,1.039434 -0.2357,1.414232 0.0542,-0.352242 -0.18899,1.228423 -0.0291,0.189368 -0.0514,0.380275 -0.0945,0.566965 -0.0453,0.196075 -0.28889,1.014619 -0.37797,1.228424 -0.0813,0.19504 -0.19605,0.374607 -0.28349,0.566962 -0.0702,0.154419 -0.11879,0.318053 -0.18899,0.472472 -0.24926,0.548373 -0.31225,0.629523 -0.66145,1.133927 -0.15424,0.222779 -0.28938,0.461722 -0.47247,0.661459 -0.16624,0.181345 -0.39302,0.298516 -0.56697,0.472471 -0.20534,0.205341 -0.36162,0.456116 -0.56696,0.661459 -0.54914,0.54914 -0.761,0.629174 -1.41741,1.039434 -0.25199,0.157488 -0.48209,0.357158 -0.75595,0.472469 -0.331,0.139364 -0.69545,0.180287 -1.03944,0.283482 -0.28621,0.08587 -0.56423,0.197618 -0.85045,0.283483 -0.70309,0.210926 -1.34905,0.381243 -2.07886,0.472469 -1.06831,0.133538 -2.1398,0.0945 -3.2128,0.0945 -0.44098,0 -0.88225,0.01633 -1.32292,0 -0.10512,-0.0039 -2.20583,-0.170929 -2.36235,-0.188989 -1.09996,-0.126918 -1.56508,-0.223065 -2.64583,-0.472469 -0.37964,-0.08761 -0.75251,-0.204021 -1.13393,-0.283483 -0.37514,-0.07816 -0.75641,-0.123333 -1.13393,-0.188989 -0.34695,-0.06034 -0.69248,-0.128648 -1.03944,-0.188987 -0.37752,-0.06566 -0.7564,-0.123332 -1.13393,-0.188989 -0.34695,-0.06034 -0.69206,-0.131093 -1.03943,-0.188989 -1.29927,-0.216543 -1.10454,-0.149283 -2.36235,-0.377976 -0.31604,-0.05746 -0.62996,-0.125992 -0.94494,-0.188986 -0.31498,-0.063 -0.63246,-0.114589 -0.94494,-0.18899 -0.34937,-0.08318 -0.69007,-0.2003 -1.03944,-0.283482 -0.31248,-0.0744 -0.63061,-0.122814 -0.94494,-0.188987 -0.47057,-0.09907 -1.33272,-0.308578 -1.79538,-0.377976 -0.31305,-0.04696 -0.63189,-0.04754 -0.94494,-0.0945 -0.46267,-0.0694 -1.32481,-0.278907 -1.79539,-0.377975 -2.84997,-0.569995 0.70116,0.155813 -1.70089,-0.377976 -0.31357,-0.06968 -0.63137,-0.119306 -0.94494,-0.188989 -0.25356,-0.05635 -0.50312,-0.129498 -0.75596,-0.188987 -0.6978,-0.16419 -1.00309,-0.213789 -1.70089,-0.377976 -0.25283,-0.05949 -0.50312,-0.129497 -0.75595,-0.188989 -0.28268,-0.06651 -0.56872,-0.118557 -0.85045,-0.188987 -0.22246,-0.05562 -0.43989,-0.129905 -0.66146,-0.188989 -0.25096,-0.06693 -0.50498,-0.122063 -0.75595,-0.188989 -0.22157,-0.05908 -0.43802,-0.137425 -0.66146,-0.188987 -0.21305,-0.04917 -1.04409,-0.162655 -1.22842,-0.188989 -0.22049,-0.0315 -0.44444,-0.04441 -0.66146,-0.09449 -0.19411,-0.04479 -0.37285,-0.144193 -0.56696,-0.188989 -10e-4,-2.65e-4 -1.3184,-0.188236 -1.32292,-0.188987 -0.15842,-0.0264 -0.31404,-0.06809 -0.47247,-0.09449 -0.43939,-0.07323 -0.88265,-0.121256 -1.32292,-0.188989 -0.18936,-0.02913 -0.37585,-0.08084 -0.56696,-0.09449 -0.25134,-0.01797 -0.50397,0 -0.75595,0 -0.25199,0 -0.50461,-0.01797 -0.75595,0 -0.19111,0.01365 -0.3776,0.06536 -0.56697,0.09449 -0.69016,0.106177 -0.58023,0.07114 -1.22842,0.188989 -0.15802,0.02873 -0.31752,0.05223 -0.47247,0.09449 -0.372,0.101455 -1.38785,0.498666 -1.6064,0.566965 -0.55779,0.174308 -0.4089,-0.01431 -0.94494,0.28348 -0.13767,0.07649 -0.25199,0.188989 -0.37798,0.283482 -0.12599,0.0945 -0.2584,0.180989 -0.37797,0.283483 -0.20293,0.173937 -0.37798,0.377976 -0.56697,0.566965 -0.12599,0.125992 -0.26064,0.243882 -0.37797,0.377976 -0.10371,0.118523 -0.17978,0.259453 -0.28349,0.377976 -0.11733,0.134093 -0.28231,0.227652 -0.37797,0.377975 -0.22613,0.355352 -0.35875,0.924902 -0.47247,1.322917 -0.063,0.220488 -0.12155,0.442291 -0.18899,0.661458 -0.0586,0.190403 -0.14725,0.372177 -0.18899,0.566965 -0.12575,0.586828 -0.0945,0.917933 -0.0945,1.511906 0,0.220486 -0.0147,0.44146 0,0.661459 0.0324,0.485703 0.12938,1.049615 0.28348,1.511903 0.0759,0.227571 0.18899,0.440973 0.28348,0.661458 0.32982,0.769586 0.59378,1.395066 1.22842,1.984375 0.28945,0.268767 1.15323,0.849543 1.51191,1.039434 0.27417,0.145148 0.56454,0.257593 0.85045,0.377976 0.31265,0.131646 0.61765,0.288716 0.94494,0.377979 0.36968,0.100822 0.75519,0.13072 1.13392,0.188986 0.82912,0.127556 1.61917,0.249976 2.45685,0.283483 0.40915,0.01635 0.81895,0 1.22842,0 0.78745,0 1.5749,0 2.36235,0 0.47247,0 0.94599,0.03143 1.41741,0 0.002,-1.38e-4 2.82866,-0.377291 2.83482,-0.377976 0.52979,-0.05886 1.97333,-0.151794 2.45685,-0.188989 0.37817,-0.02909 0.755,-0.07802 1.13393,-0.09449 0.34615,-0.01505 0.69296,0 1.03943,0 0.40948,0 0.81895,0 1.22843,0 1.19692,0 2.39385,0 3.59077,0 0.37798,0 0.75595,0 1.13393,0 0.44097,0 0.88222,0.01574 1.32291,0 0.44182,-0.01577 0.88174,-0.06603 1.32292,-0.09449 0.53528,-0.03454 1.07221,-0.04593 1.6064,-0.0945 0.5058,-0.04598 1.00847,-0.121862 1.51191,-0.188986 1.29363,-0.172485 2.5823,-0.3824 3.87425,-0.566965 0.44097,-0.063 0.88019,-0.139796 1.32292,-0.188987 0.40817,-0.04535 0.81886,-0.06416 1.22842,-0.0945 1.11283,-0.08243 2.53232,-0.188987 3.59077,-0.188987 0.97695,0 1.9544,0.03159 2.92932,0.09449 2.33327,0.150534 4.15981,0.269705 6.23661,1.41741 0.46947,0.259445 0.82474,0.686218 1.22842,1.039434 0.10057,0.088 0.18899,0.188989 0.28348,0.283482 0.29199,0.291987 0.32452,0.297797 0.56697,0.661459 0.20375,0.305636 0.36321,0.639307 0.56696,0.94494 0.0874,0.131041 0.21305,0.237115 0.28348,0.377976 0.0581,0.11616 0.0489,0.256376 0.0945,0.377976 0.3112,0.829882 0.0668,-0.07393 0.37797,0.755954 0.0456,0.1216 0.0489,0.256374 0.0945,0.377976 0.0495,0.131895 0.12599,0.251984 0.18899,0.377976 0.063,0.125992 0.11909,0.255672 0.18898,0.377976 0.1659,0.290322 0.26376,0.318796 0.37798,0.661458 0.0508,0.152368 0.063,0.314981 0.0945,0.472472 0.0315,0.157488 0.063,0.314978 0.0945,0.472469 0.063,0.314981 0.12599,0.62996 0.18899,0.944941 0.0315,0.15749 0.08,0.31252 0.0945,0.472469 0.0171,0.188211 0,0.377976 0,0.566965 0,0.188989 0,0.377976 0,0.566965 0,0.188987 0.0171,0.378751 0,0.566962 -0.0145,0.159952 -0.0681,0.314048 -0.0945,0.472472 -0.0366,0.219694 -0.0478,0.443677 -0.0945,0.661458 -0.0731,0.341202 -0.26468,0.888543 -0.37798,1.228424 -0.063,0.188986 -0.11236,0.383077 -0.18898,0.566962 -0.22964,0.551122 -0.55264,1.063562 -0.94494,1.511906 -0.20534,0.234664 -0.44098,0.44097 -0.66146,0.661458 -0.25199,0.251984 -0.50397,0.503968 -0.75595,0.755952 -0.126,0.125992 -0.23885,0.266668 -0.37798,0.377976 -0.63622,0.508973 -1.05509,0.573923 -1.88988,0.944941 -3.14984,1.399929 0.19462,-0.02114 -1.98438,0.850447 -0.22272,0.08909 -0.43685,0.199253 -0.66145,0.283483 -1.1881,0.445534 -0.48125,0.141541 -1.6064,0.472469 -0.28668,0.08432 -0.56867,0.184031 -0.85045,0.283482 -0.25378,0.08957 -0.49665,0.211453 -0.75595,0.283483 -0.3095,0.08597 -0.63331,0.11108 -0.94494,0.188986 -0.31903,0.07976 -0.62768,0.196956 -0.94494,0.283483 -1.37967,0.376274 -0.82261,0.160528 -2.07887,0.566965 -0.75816,0.245285 -1.51191,0.503968 -2.26786,0.755952 -0.37798,0.125992 -0.74826,0.277987 -1.13393,0.377975 -0.4664,0.12092 -0.95563,0.145934 -1.41741,0.283483 -1.02147,0.304268 -2.01124,0.706734 -3.02381,1.039434 -9.63709,3.166475 2.65121,-0.978228 -7.37053,2.362351 -0.63318,0.211061 -1.24752,0.480279 -1.88989,0.661458 -0.58861,0.166021 -1.20307,0.225669 -1.79538,0.377979 -0.51137,0.131492 -1.00794,0.314978 -1.51191,0.472469 -0.66146,0.188989 -1.31791,0.396473 -1.98437,0.566965 -0.68846,0.176117 -1.39041,0.296352 -2.07887,0.472469 -0.66646,0.170492 -1.3225,0.379433 -1.98438,0.566965 -1.22801,0.347935 -2.45169,0.711766 -3.68526,1.039434 -2.24987,0.597622 -3.42067,0.776946 -5.85863,1.228423 -0.53465,0.09901 -1.06932,0.198679 -1.6064,0.283483 -0.66,0.104209 -1.32325,0.18673 -1.98438,0.28348 -1.26059,0.184478 -2.51663,0.400764 -3.77976,0.566965 -0.56558,0.07442 -1.13413,0.124216 -1.70089,0.188989 -0.53567,0.06122 -1.06807,0.159078 -1.6064,0.188988 -0.59754,0.0332 -1.19693,0 -1.79539,0 -0.59846,0 -1.19692,0 -1.79539,0 -1.33681,0 -1.98682,0.0333 -3.30729,-0.0945 -0.44337,-0.0429 -0.88113,-0.131979 -1.32291,-0.188984 -1.03844,-0.13399 -2.07935,-0.248105 -3.11831,-0.377976 -0.50397,-0.06299 -1.00793,-0.125992 -1.5119,-0.188986 -0.50397,-0.063 -1.00654,-0.138451 -1.5119,-0.18899 -0.43991,-0.04399 -0.88331,-0.04772 -1.32292,-0.09449 -1.04117,-0.110762 -2.07556,-0.283181 -3.11831,-0.377976 -0.69082,-0.0628 -1.38826,-0.02934 -2.07886,-0.0945 -1.32322,-0.12483 -3.89872,-0.510135 -5.29167,-0.755951 -1.45496,-0.256757 -3.39102,-0.63582 -4.8192,-1.039434 -0.67096,-0.189619 -1.3403,-0.394407 -1.98437,-0.661459 -0.89985,-0.373107 -1.97363,-0.96648 -2.83482,-1.511906 -2.213536,-1.4019 -1.286039,-0.777771 -2.740335,-1.889879 C 97.078489,92.512503 96.795467,92.359598 96.572743,92.136874 96.318799,91.88293 96.139589,91.563652 95.911285,91.286427 95.698433,91.027963 95.462679,90.788939 95.249827,90.530475 95.021523,90.25325 94.825978,89.949321 94.588368,89.68003 94.352593,89.412817 94.060551,89.19784 93.832417,88.924076 93.586278,88.628708 93.396069,88.290828 93.170959,87.979135 92.60502,87.195529 92.438232,87.049363 91.848042,86.183749 91.616688,85.844432 91.41439,85.486025 91.186584,85.144315 90.973311,84.824405 90.738398,84.519282 90.525125,84.199375 90.297319,83.857665 90.091473,83.50165 89.863667,83.15994 89.650394,82.84003 89.415481,82.534907 89.202209,82.215 88.974402,81.87329 88.768557,81.517275 88.54075,81.175565 88.142957,80.578877 87.623956,79.940104 87.312327,79.285684 87.15382,78.952822 87.079578,78.585115 86.934351,78.24625 c -1.241195,-2.896122 0.367194,1.325663 -0.944941,-2.173365 -0.116334,-0.310224 -0.691287,-1.88237 -0.755951,-2.173361 -0.103402,-0.465302 -0.110628,-0.947246 -0.18899,-1.41741 -0.232137,-1.39283 -0.324225,-1.311627 -0.472469,-2.645833 -0.128156,-1.153406 -0.0945,-1.56563 -0.0945,-2.74033 0,-1.135986 -0.02917,-1.397105 0.0945,-2.551337 0.04746,-0.442915 0.125992,-0.881946 0.188987,-1.322917 0.063,-0.440973 0.125992,-0.881946 0.188989,-1.322916 0.063,-0.440973 0.08447,-0.889905 0.188987,-1.322917 0.201173,-0.833432 0.729131,-2.044954 1.039436,-2.834822 0.243624,-0.620136 0.786853,-2.077527 1.039435,-2.645834 0.17163,-0.386167 0.377975,-0.755951 0.566962,-1.133927 0.704768,-1.409536 0.458332,-1.018225 1.417413,-2.456847 0.276254,-0.414382 0.566962,-0.818949 0.850444,-1.228423 0.283483,-0.409475 0.556604,-0.826318 0.850448,-1.228421 0.304805,-0.417105 0.640133,-0.811321 0.944941,-1.228423 0.625057,-0.855343 1.020585,-1.552462 1.700892,-2.362351 0.358423,-0.426694 0.777182,-0.800328 1.133928,-1.228424 0.274267,-0.32912 0.4831,-0.709138 0.755954,-1.039434 0.326559,-0.395311 0.712872,-0.738618 1.039434,-1.13393 0.272852,-0.330292 0.496311,-0.698656 0.755952,-1.039434 0.244462,-0.320852 0.521496,-0.616701 0.755951,-0.944941 0.238707,-0.334184 0.438817,-0.694338 0.661459,-1.039434 0.407326,-0.631351 0.848452,-1.241697 1.228423,-1.889879 0.156885,-0.267626 0.232835,-0.576278 0.377975,-0.850447 0.13904,-0.262621 0.33408,-0.492999 0.47247,-0.755952 0.32593,-0.619265 1.09288,-2.536246 1.22843,-2.929316 0.0947,-0.274534 0.13852,-0.564467 0.18898,-0.850447 0.14094,-0.798653 0.0945,-1.557124 0.0945,-2.362351 0,-0.220485 0.0147,-0.44146 0,-0.661459 -0.0327,-0.491079 -0.10618,-0.956418 -0.28348,-1.417409 -0.17503,-0.455071 -0.39206,-0.729824 -0.66146,-1.133929 -0.12599,-0.188988 -0.2417,-0.385256 -0.37798,-0.566964 -0.21304,-0.284055 -0.66248,-0.804054 -0.944942,-1.039435 -0.646824,-0.539021 -1.575371,-1.032977 -2.36235,-1.322917 -0.308573,-0.113685 -0.631354,-0.184455 -0.944941,-0.283482 -0.812279,-0.25651 -1.613882,-0.607194 -2.456844,-0.755952 -0.280887,-0.04957 -0.570106,-0.04193 -0.850448,-0.09449 -0.22538,-0.04226 -0.438994,-0.133373 -0.661458,-0.188988 -0.563454,-0.140864 -1.137439,-0.237113 -1.700893,-0.377976 -0.222461,-0.05562 -0.436602,-0.144017 -0.661458,-0.188989 -0.249013,-0.0498 -0.506357,-0.04769 -0.755952,-0.09449 -0.255291,-0.04787 -0.503118,-0.129497 -0.755951,-0.188988 -2.409182,-0.535373 0.598667,0.140864 -1.606399,-0.377976 -0.565357,-0.133025 -1.137441,-0.237113 -1.700893,-0.377976 -0.444926,-0.111231 -0.87448,-0.281883 -1.322916,-0.377976 -0.217782,-0.04667 -0.44444,-0.04441 -0.661459,-0.09449 -1.569164,-0.362115 0.686845,-0.02727 -1.417412,-0.377977 -0.281345,-0.04689 -0.566635,-0.06611 -0.850445,-0.09449 -0.305134,-0.03051 -1.648214,-0.144166 -1.984375,-0.188988 -0.63142,-0.08419 -1.258462,-0.199292 -1.889882,-0.283482 -0.972394,-0.129652 -1.956922,-0.153829 -2.929316,-0.283482 -0.759656,-0.101288 -1.50963,-0.266472 -2.267857,-0.377976 -0.313182,-0.04606 -0.630436,-0.05855 -0.944941,-0.09449 -0.787969,-0.09005 -1.573186,-0.204566 -2.362351,-0.283482 -0.786045,-0.0786 -1.576305,-0.110384 -2.362351,-0.188988 -0.474284,-0.04743 -0.942808,-0.144839 -1.41741,-0.188989 -0.88039,-0.0819 -1.763691,-0.128842 -2.645833,-0.188988 -0.503782,-0.03435 -1.009544,-0.04341 -1.511906,-0.09449 -1.354412,-0.15749 -2.708828,-0.31498 -4.063243,-0.47247 -0.472469,-0.0315 -0.946243,-0.04738 -1.41741,-0.09449 -1.706343,-0.170634 -1.080434,-0.226244 -2.740329,-0.283482 -0.472189,-0.01628 -0.945052,0.01027 -1.41741,0 -3.527393,-0.07668 -2.470103,-0.151869 -6.142112,-0.09449 -0.945351,0.01477 -1.889498,0.0782 -2.834822,0.09449 -0.881814,0.0152 -1.764035,-0.01603 -2.645833,0 -0.85089,0.01547 -1.700462,0.07844 -2.551341,0.09449 -3.380194,0.06378 -1.413557,-0.0082 -4.346725,-0.09449 -0.818595,-0.02408 -1.638552,0.03273 -2.456844,0 -2.334954,-0.0934 -0.146482,-0.08827 -2.362351,-0.188988 -0.314656,-0.0143 -0.629962,0 -0.944941,0 -0.34648,0 -0.692957,0 -1.039435,0 -0.283482,0 -0.567356,0.0149 -0.850447,0 -0.316113,-0.01664 -0.628784,-0.07869 -0.94494,-0.09449 -0.314587,-0.01573 -0.62996,0 -0.944941,0 -0.251984,0 -0.504356,-0.01398 -0.755952,0 -0.572991,0.03183 -1.131931,0.12577 -1.700893,0.188988 -0.314615,0.03496 -0.632263,0.04512 -0.94494,0.09449 -0.498078,0.07864 -1.334847,0.311281 -1.795387,0.47247 -0.320198,0.112069 -0.626121,0.262042 -0.944941,0.377976 -0.374434,0.136158 -0.780994,0.193106 -1.133928,0.377977 -0.318131,0.166639 -0.565437,0.44295 -0.850447,0.661458 -0.65994,0.505954 -1.336785,0.990235 -1.984375,1.511905 -0.721656,0.581334 -1.439825,1.210897 -2.078869,1.889881 -0.290431,0.308583 -0.596188,0.60593 -0.850446,0.94494 -0.3866532,0.515538 -0.8092177,1.351279 -1.0394345,1.984375 -0.068079,0.187217 -0.1406724,0.373701 -0.1889882,0.566964 -1.453e-4,5.82e-4 -0.1884082,1.13074 -0.1889879,1.133929 -0.028731,0.158018 -0.079953,0.312521 -0.094494,0.47247 -0.04222,0.46442 0.011732,0.678743 0.094494,1.13393 0.089995,0.494969 0.074729,0.475247 0.283482,0.944938 0.05721,0.128725 0.1071131,0.263353 0.1889882,0.377978 0.077674,0.108741 0.1889881,0.188987 0.2834822,0.28348 0.094494,0.0945 0.182019,0.196514 0.283482,0.283483 0.4001632,0.342998 0.9339102,0.648988 1.4174112,0.850447 0.183887,0.07662 0.379747,0.120909 0.566964,0.188987 0.159409,0.05797 0.31306,0.131021 0.47247,0.188989 0.494259,0.179731 0.880082,0.293135 1.417411,0.377976 0.312677,0.04937 0.629815,0.06448 0.94494,0.09449 0.34634,0.03299 0.691829,0.08001 1.039435,0.0945 1.232552,0.05136 3.300327,-0.101121 4.252232,-0.188989 1.04261,-0.09624 2.076457,-0.273791 3.118303,-0.377976 0.848545,-0.08486 1.70073,-0.12823 2.55134,-0.188989 0.472315,-0.03374 0.944193,-0.07759 1.417411,-0.09449 0.409213,-0.0146 0.818949,0 1.228421,0 0.409474,0 0.818949,0 1.228423,0 0.440973,0 0.882248,-0.01632 1.322917,0 0.410403,0.01521 0.818041,0.07871 1.228423,0.09449 0.40917,0.01574 0.818949,0 1.228423,0 0.598462,0 1.196925,0 1.795386,0 1.543402,0 3.086807,0 4.630209,0 1.606399,0 3.212798,0 4.819197,0 0.535466,0 1.070933,0 1.606397,0 0.535466,0 1.071178,0.01622 1.606399,0 0.504721,-0.01529 1.008001,-0.06198 1.511906,-0.09449 0.571283,-0.03686 2.509451,-0.172394 3.023809,-0.188986 0.440743,-0.01421 0.881943,0 1.322916,0 0.440973,0 0.881944,0 1.322917,0 0.346477,0 0.692957,0 1.039434,0 0.377976,0 0.756309,-0.01643 1.13393,0 3.026019,0.131564 -1.166656,0.09449 2.267855,0.09449 1.732391,0 3.464782,0 5.197173,0 0.503968,0 1.007938,0 1.511906,0 0.314979,0 0.630256,-0.01368 0.944941,0 0.410295,0.01783 0.818126,0.07665 1.228421,0.09449 0.314685,0.01368 0.630317,-0.01497 0.944941,0 0.651843,0.03104 1.161727,0.114441 1.795388,0.18899 0.81874,0.09632 1.638104,0.187158 2.456844,0.283482 0.404865,0.04763 1.895742,0.237699 2.078868,0.28348 0.329116,0.08228 0.632283,0.246332 0.944941,0.377979 0.285909,0.120382 0.572979,0.239241 0.850448,0.377975 0.674375,0.337188 1.0785,0.608547 1.700892,1.039434 0.59119,0.409284 0.99509,0.856253 1.322917,1.511904 0.120354,0.24071 0.236712,0.490929 0.283482,0.755954 0.08397,0.475827 -0.01016,0.953505 -0.0945,1.41741 -0.02873,0.15802 -0.04659,0.319172 -0.09449,0.472469 -0.109966,0.351893 -0.230203,0.701672 -0.377976,1.039437 -0.07362,0.168264 -0.207481,0.305268 -0.283482,0.472469 -0.08243,0.181356 -0.09359,0.392078 -0.188987,0.566965 -0.09658,0.177059 -0.255008,0.312608 -0.377978,0.472469 -0.976225,1.269095 -0.120629,0.307242 -1.133928,1.228423 -0.301045,0.273677 -0.415509,0.491236 -0.755951,0.661459 -0.790932,0.338971 -0.446903,0.176204 -1.039434,0.472469 -0.125992,0.063 -0.255675,0.119102 -0.377979,0.188989 -0.0986,0.05635 -0.17653,0.150791 -0.28348,0.188987 -0.338211,0.12079 -0.693404,0.187364 -1.039437,0.283482 -0.220942,0.06138 -0.438242,0.13647 -0.661458,0.188989 -0.312676,0.07357 -0.635675,0.102177 -0.944938,0.188987 -1.48721,0.417462 -2.967993,0.858531 -4.441222,1.322917 -1.424964,0.449175 -2.83482,0.94494 -4.252232,1.417412 -0.661459,0.220485 -1.32628,0.431125 -1.984375,0.661458 -0.570566,0.199697 -1.975131,0.774896 -2.740327,0.944941 -0.247898,0.05509 -0.50587,0.05036 -0.755951,0.09449 -0.285981,0.05047 -0.566965,0.125992 -0.850448,0.188986 -0.283482,0.063 -0.567769,0.122478 -0.850445,0.188989 -0.252836,0.05949 -0.500166,0.143849 -0.755954,0.18899 -0.561771,0.09914 -1.136171,0.108312 -1.700893,0.188986 -0.379338,0.05419 -0.751824,0.16015 -1.133927,0.188989 -1.658705,0.125185 -4.31813,0.247825 -6.142114,0.188987 -0.222607,-0.0072 -0.441137,-0.06185 -0.661458,-0.09449 -0.630129,-0.09335 -1.258848,-0.196443 -1.889882,-0.283483 -0.282551,-0.03897 -0.56682,-0.06432 -0.850445,-0.09449 -1.196785,-0.127318 -2.397345,-0.222311 -3.590774,-0.377976 -0.257559,-0.03359 -0.499748,-0.146288 -0.755952,-0.188989 -0.689853,-0.114975 -1.390142,-0.161941 -2.078871,-0.283483 -0.38368,-0.06771 -0.753597,-0.198964 -1.133927,-0.283482 -0.374065,-0.08312 -0.760553,-0.102822 -1.133928,-0.188987 -0.997505,-0.230192 -0.309398,-0.14606 -1.13393,-0.283482 -0.439388,-0.07323 -0.883528,-0.115755 -1.322916,-0.188989 -0.980631,-0.163439 0.0679,-0.0066 -1.039434,-0.28348 -0.185875,-0.04647 -0.37846,-0.06022 -0.566965,-0.0945 -1.452759,-0.264136 0.631245,0.08946 -1.039435,-0.188987 -0.377975,-0.063 -0.75692,-0.120441 -1.133927,-0.188989 -0.15802,-0.02873 -0.312521,-0.07995 -0.472472,-0.09449 -0.188211,-0.01712 -0.377976,0 -0.566962,0 -0.157491,0 -0.314981,0 -0.472472,0 -0.314978,0 -0.62996,0 -0.944941,0 -0.188987,0 -0.378532,-0.0145 -0.566963,0 -0.222069,0.01709 -0.441324,0.06063 -0.661458,0.09449 -0.378735,0.05827 -0.755953,0.125992 -1.133929,0.188989 -1.67068,0.278445 0.413323,-0.07515 -1.039435,0.188987 -0.0032,5.29e-4 -1.133347,0.188843 -1.133928,0.188989 -0.323503,0.08087 -0.726318,0.25273 -1.039435,0.377976 -0.443017,0.177207 -0.907063,0.329335 -1.322916,0.566965 -0.09861,0.05635 -0.184878,0.132641 -0.283482,0.188986 -0.122304,0.06989 -0.248503,0.133501 -0.377977,0.18899 -0.308456,0.132196 -0.348061,0.05963 -0.661458,0.283482 -0.108743,0.07767 -0.188988,0.188987 -0.283482,0.283483 -0.063,0.06299 -0.135534,0.117715 -0.188988,0.188986 -0.04226,0.05635 -0.0505,0.133991 -0.09449,0.188989 -0.08348,0.104352 -0.196514,0.182018 -0.283482,0.283483 -0.204987,0.239149 -0.361978,0.5168 -0.566965,0.755952 -0.08697,0.101462 -0.203301,0.176575 -0.283482,0.283482 -0.110198,0.146931 -0.188988,0.314979 -0.283482,0.472469 -0.09449,0.157491 -0.188988,0.314981 -0.283482,0.472472 -0.09449,0.157488 -0.208889,0.304636 -0.283482,0.472469 -0.05275,0.118676 -0.04889,0.256376 -0.09449,0.377976 -0.155756,0.415351 -0.178591,0.312536 -0.377976,0.661458 -0.176564,0.308986 -0.242978,0.512953 -0.377977,0.850448 -0.063,0.15749 -0.135348,0.311552 -0.188988,0.472469 -0.07682,0.230452 -0.139059,0.625766 -0.188988,0.850447 -0.05635,0.253553 -0.125992,0.503968 -0.188988,0.755952 -0.09449,0.377976 -0.188988,0.755952 -0.283482,1.13393 -0.0315,0.125992 -0.07613,0.24941 -0.09449,0.377976 -0.01336,0.09354 0,0.188986 0,0.283482 0,0.377976 0,0.755952 0,1.133928 0,0.125992 0,0.251984 0,0.377976 0,0.125992 -0.01782,0.253251 0,0.377975 0.01409,0.0986 0.06713,0.187709 0.09449,0.283483 0.03568,0.124873 0.063,0.251984 0.09449,0.377976 0.125733,0.502933 0.235568,1.013478 0.377976,1.511906 0.05473,0.191545 0.134261,0.375417 0.188988,0.566965 0.178291,0.624017 0.29418,1.265862 0.47247,1.889879 0.02736,0.09577 0.06713,0.187708 0.0945,0.283482 0.07136,0.249746 0.125991,0.503968 0.188988,0.755952 0.06878,0.275114 0.149,0.570531 0.188988,0.850447 0.04034,0.282361 0.05218,0.568376 0.09449,0.850448 0.05224,0.34826 0.128649,0.692483 0.188988,1.039434 0.06566,0.377523 0.120441,0.756917 0.188988,1.133928 0.05746,0.316036 0.145587,0.626668 0.188988,0.94494 0.224421,1.645751 0.0021,0.602507 0.09449,2.173365 0.01125,0.191262 0.07858,0.376031 0.09449,0.566962 0.0157,0.188336 -0.01711,0.378754 0,0.566965 0.01454,0.159949 0.07995,0.312521 0.09449,0.472469 0.03707,0.407794 -0.02917,0.819989 0,1.228423 0.01587,0.22216 0.07741,0.439391 0.09449,0.661459 0.01449,0.188431 -0.01449,0.378534 0,0.566965 0.01708,0.222067 0.07863,0.439298 0.09449,0.661458 0.01571,0.219924 -0.01691,0.441621 0,0.661458 0.01469,0.19103 0.063,0.377976 0.09449,0.566965 0.0315,0.188987 0.063,0.377976 0.09449,0.566963 0.147426,0.884552 0.296602,1.76649 0.472471,2.645833 0.119963,0.599819 0.05554,0.316656 0.188988,0.850448 0.0315,0.125992 0.07838,0.249108 0.09449,0.377976 0.01563,0.125018 -0.01782,0.253251 0,0.377975 0.03807,0.266523 0.192734,0.407363 0.283482,0.661459 0.249722,0.699222 0.258018,0.81762 0.377976,1.41741 0.0315,0.15749 0.063,0.314981 0.09449,0.472471 0.0315,0.157491 0.07851,0.312658 0.09449,0.472469 0.03134,0.313418 -0.03134,0.631524 0,0.944941 7.3e-5,7.94e-4 0.188264,0.940959 0.188988,0.944941 0.241796,1.329878 -0.04443,-0.127638 0.188988,1.039434 0.0315,0.157491 0.07851,0.312658 0.09449,0.472472 0.01567,0.156707 -0.01739,0.315942 0,0.472469 1.37e-4,0.0013 0.187635,0.749864 0.188989,0.755952 0.06968,0.313568 0.125991,0.629959 0.188988,0.944941 0.0315,0.15749 0.07851,0.312658 0.09449,0.472471 0.01567,0.156708 -0.03089,0.318037 0,0.472469 0.03327,0.166328 0.131021,0.313061 0.188988,0.472469 0.136158,0.374436 0.251984,0.755955 0.377976,1.133931 0.063,0.188986 0.112369,0.383077 0.188988,0.566965 0.251075,0.60258 0.35409,0.613685 0.661458,1.22842 0.138735,0.277469 0.25986,0.563595 0.377977,0.850448 0.102467,0.248848 0.175614,0.509397 0.283482,0.755951 0.112921,0.258107 0.258838,0.500658 0.377976,0.755952 0.855669,1.833578 -0.254482,-0.414467 0.566964,1.228423 0.220486,0.440974 0.440972,0.881952 0.661458,1.322922 0.09449,0.18899 0.170043,0.3887 0.283483,0.56696 0.10828,0.17016 0.262317,0.30725 0.377976,0.47247 0.210648,0.30093 0.341447,0.655 0.566964,0.94494 0.109392,0.14065 0.251984,0.25199 0.377976,0.37798 0.359775,0.35978 0.521719,0.54845 1.039435,0.85045 0.112178,0.0654 0.256375,0.0489 0.377976,0.0945 0.43441,0.1629 0.296382,0.23242 0.755953,0.28348 0.471321,0.0524 1.002459,-0.0529 1.41741,-0.28348 0.137671,-0.0765 0.253661,-0.18679 0.377976,-0.28348 0.408215,-0.3175 0.568224,-0.40695 0.850447,-0.85045 0.113438,-0.17826 0.188987,-0.37797 0.283483,-0.56696 0.21753,-0.43506 0.362839,-0.65886 0.472469,-1.13393 0.05008,-0.21702 0.06506,-0.44069 0.09449,-0.66146 0.03356,-0.25172 0.07866,-0.502503 0.0945,-0.755956 0.03332,-0.533109 -0.01677,-1.182822 -0.0945,-1.700892 -0.02794,-0.587859 -0.282493,-1.128001 -0.377976,-1.700893 -0.104081,-0.624488 -0.09507,-1.263782 -0.188986,-1.889881 -0.132731,-0.884865 -0.42518,-1.747295 -0.472472,-2.645834 -0.0182,-0.345998 0,-0.692957 0,-1.039434 0,-0.377976 0,-0.755951 0,-1.133927 0,-0.440973 -0.03258,-0.88315 0,-1.322917 0.0306,-0.41316 0.128275,-0.818605 0.188989,-1.228423 0.06528,-0.44064 0.139796,-0.880192 0.188987,-1.322917 0.04535,-0.408173 0.06416,-0.818861 0.0945,-1.228423 0.258741,-3.493037 -0.05995,0.654889 0.188986,-2.456844 0.247169,-3.089601 -0.05375,0.550471 0.18899,-2.362351 0.0315,-0.377976 0.07802,-0.755002 0.09449,-1.13393 0.01506,-0.346152 -0.02162,-0.693632 0,-1.039434 0.02434,-0.389433 0.336944,-3.443428 0.377976,-3.874257 0.06597,-0.692679 0.09994,-1.388774 0.188989,-2.078868 0.03716,-0.28801 0.121724,-0.567947 0.188987,-0.850445 0.305834,-1.284502 0.258585,-1.05301 0.661458,-2.362354 0.125992,-0.409474 0.221861,-0.829458 0.377976,-1.22842 0.128328,-0.327946 0.321717,-0.626682 0.472471,-0.944941 0.1328,-0.280358 0.232828,-0.576278 0.377976,-0.850448 0.392906,-0.742153 0.456052,-0.711806 0.944941,-1.322916 0.224348,-0.280435 0.415322,-0.588926 0.661458,-0.850445 0.64693,-0.687364 0.862256,-0.763336 1.6064,-1.228424 0.251983,-0.15749 0.496961,-0.326789 0.755951,-0.472469 0.530749,-0.298548 0.937223,-0.4699 1.511906,-0.661458 0.311973,-0.103992 0.622477,-0.21899 0.944938,-0.283482 0.310404,-0.06208 0.628828,-0.07786 0.944941,-0.0945 0.501907,-0.02641 1.018643,-0.01934 1.511906,0.0945 0.385387,0.08893 1.023549,0.367384 1.322917,0.566962 0.241625,0.161084 0.440973,0.377978 0.661458,0.566965 0.220485,0.188989 0.470231,0.348419 0.661458,0.566965 0.334169,0.381905 1.045634,1.517248 1.228424,1.984375 0.1921,0.490926 0.527351,2.383811 0.566962,2.740327 0.277043,2.493375 -0.12406,4.989348 -0.377976,7.46503 -0.526685,5.135184 0.16976,-1.161724 -0.472469,3.590774 -0.08059,0.596347 -0.106204,1.199338 -0.188989,1.795386 -0.149603,1.07714 -0.404053,2.13759 -0.566965,3.212799 -0.07608,0.502158 -0.125992,1.007935 -0.188987,1.511903 -0.255862,2.046901 -0.129646,1.007493 -0.377976,3.118305 -0.219138,1.862677 -0.161221,1.184296 -0.283482,2.83482 -0.03266,0.440888 -0.07872,0.881102 -0.09449,1.322916 -0.01574,0.440693 0,0.881947 0,1.322917 0,0.409474 -0.01704,0.819303 0,1.228423 0.01447,0.347605 0.06675,0.692635 0.09449,1.039435 0.03526,0.440687 0.02727,0.885962 0.09449,1.322916 0.04675,0.303906 0.438658,1.730608 0.566965,2.078868 0.107244,0.291095 0.262763,0.562417 0.377976,0.850448 0.136922,0.342305 0.232749,0.700569 0.377976,1.039439 0.138724,0.32369 0.3077,0.63371 0.472472,0.94494 0.232431,0.43904 0.529103,0.94315 0.850445,1.32292 0.371684,0.43926 0.613243,0.60398 1.039434,0.94494 0.15749,0.12599 0.302315,0.26969 0.472471,0.37797 0.362395,0.23062 0.727372,0.35051 1.133928,0.47247 0.124394,0.0373 0.248108,0.0945 0.377976,0.0945 0.16061,0 0.316658,-0.0555 0.472471,-0.0945 0.895956,-0.22399 0.473078,-0.11371 1.322917,-0.56696 0.248581,-0.13258 0.532159,-0.20684 0.755952,-0.37798 0.665331,-0.50878 1.07324,-1.16814 1.606399,-1.79538 1.216562,-1.43125 0.577887,-0.43775 1.606399,-2.17337 0.547037,-0.923128 1.017291,-1.786432 1.511903,-2.740329 0.434163,-0.837311 0.890683,-1.773338 1.228424,-2.645833 0.45784,-1.182751 0.482676,-1.55529 0.850447,-2.740327 0.147614,-0.475649 0.310118,-0.946589 0.472469,-1.41741 0.152646,-0.442674 0.324395,-0.878694 0.472469,-1.322917 0.256427,-0.769276 0.534781,-1.777237 0.755955,-2.55134 0.393985,-1.37895 0.786098,-2.766419 1.133927,-4.157739 0.133416,-0.533664 0.252981,-1.070697 0.377976,-1.606396 0.09549,-0.409244 0.204123,-0.81575 0.283482,-1.228424 0.07824,-0.406836 0.105051,-0.822724 0.18899,-1.228423 0.105248,-0.508704 0.272727,-1.003199 0.377975,-1.511903 0.08394,-0.405702 0.11075,-0.821587 0.188987,-1.228424 0.17286,-0.898863 0.431863,-1.760249 0.661458,-2.645833 0.09778,-0.37714 0.18097,-0.75805 0.283483,-1.13393 0.08653,-0.317262 0.203726,-0.625909 0.283482,-0.944938 0.07791,-0.311629 0.09226,-0.638633 0.18899,-0.944941 0.09342,-0.29582 0.262763,-0.562417 0.377975,-0.850447 0.332375,-0.830938 0.321519,-1.07133 0.755952,-1.795386 0.139406,-0.232344 0.314981,-0.440973 0.472472,-0.661459 0.452276,-0.633187 0.90773,-1.291907 1.511903,-1.795388 0.17449,-0.145407 0.375341,-0.256032 0.566965,-0.377976 0.579112,-0.368525 0.541613,-0.337169 1.322917,-0.566965 0.305903,-0.08997 1.07002,-0.28348 1.41741,-0.28348 0.809275,0 1.26534,0.404345 1.889881,0.850445 0.220485,0.157491 0.469863,0.280877 0.661459,0.472472 0.199215,0.199215 1.315418,1.740289 1.41741,1.889879 0.231354,0.339318 0.484266,0.668943 0.661458,1.039434 0.171902,0.359431 0.243022,0.759061 0.377976,1.13393 0.45204,1.255662 0.577847,1.282835 0.850447,2.645834 0.251431,1.257157 0.188987,1.563822 0.188987,2.834819 0,0.566965 0.01667,1.134174 0,1.700896 -0.04469,1.51956 -0.257765,3.032781 -0.472469,4.535712 -0.16169,1.131837 -0.183597,1.198777 -0.377976,2.267857 -0.063,0.346477 -0.141407,0.690505 -0.188989,1.039434 -0.04701,0.344718 -0.05807,0.693439 -0.09449,1.039435 -0.03727,0.354107 -0.170455,1.272794 -0.188989,1.606399 -0.01572,0.283046 0.01664,0.567454 0,0.850447 -0.01492,0.253506 -0.06299,0.503968 -0.09449,0.755952 -0.0315,0.283482 -0.07867,0.565658 -0.09449,0.850447 -0.02622,0.471742 0,0.944941 0,1.41741 0,0.18899 0,0.377976 0,0.566965 0,0.220486 -0.01572,0.441532 0,0.661459 0.01587,0.222157 0.07741,0.439388 0.09449,0.661458 0.0145,0.188431 -0.0145,0.378532 0,0.566962 0.01709,0.222071 0.07741,0.439391 0.09449,0.661459 0.0145,0.188433 -0.01712,0.378754 0,0.566965 0.02193,0.241152 0.134819,0.606676 0.188989,0.850447 0.06968,0.313569 0.125992,0.62996 0.18899,0.944941 0.0315,0.157488 0.0437,0.320101 0.09449,0.472469 0.294272,0.882814 0.06692,-0.06435 0.377976,0.661459 0.05116,0.119369 0.04889,0.256376 0.09449,0.377975 0.129008,0.344022 0.365263,0.642385 0.566965,0.944941 0.063,0.09449 0.1382,0.181904 0.188989,0.283483 0.153707,0.307417 0.01267,0.296156 0.28348,0.566965 0.0498,0.0498 0.128596,0.05826 0.188989,0.09449 0.09738,0.05843 0.18899,0.125992 0.283483,0.188987 0.283482,0.188989 0.566965,0.377978 0.850445,0.566965 0.0945,0.063 0.194802,0.118044 0.283482,0.188989 0.06957,0.05565 0.119423,0.133327 0.18899,0.188987 0.177363,0.14189 0.377975,0.25198 0.566965,0.37797 0.188986,0.12599 0.372197,0.26112 0.566962,0.37798 0.0604,0.0362 0.128595,0.0583 0.188989,0.0945 0.194768,0.11686 0.385255,0.2417 0.566965,0.37798 0.03563,0.0267 0.05886,0.0678 0.09449,0.0945 0.181708,0.13628 0.377976,0.25199 0.566966,0.37798 0.283479,0.18899 0.566962,0.37798 0.850444,0.56696 0.09449,0.063 0.192628,0.12085 0.283483,0.18899 0.41025,0.30769 -0.542856,-0.26901 0.377976,0.28349 0.12079,0.0725 0.251984,0.12599 0.377976,0.18898 0.188989,0.0945 0.377975,0.18899 0.566965,0.28348 0.063,0.0315 0.130386,0.0554 0.188989,0.0945 0.216231,0.14415 -0.05909,0.0748 0.28348,0.18899 0.02988,0.01 0.06632,-0.0141 0.0945,0 0.03984,0.0199 0.05743,0.0698 0.09449,0.0945 0.117205,0.0781 0.251984,0.12599 0.377976,0.18899 0.188989,0.0945 0.377976,0.18899 0.566965,0.28348 0.188986,0.0945 0.377976,0.18899 0.566965,0.28348 0.125992,0.063 0.26077,0.11085 0.377976,0.18899 0.03706,0.0247 0.05886,0.0678 0.09449,0.0945 0.181708,0.13629 0.372197,0.26112 0.566965,0.37798 0.06039,0.0362 0.128593,0.0583 0.188987,0.0945 0.09739,0.0584 0.186099,0.13055 0.283482,0.18898 0.12079,0.0725 0.24719,0.13668 0.377976,0.18899 0.09248,0.037 0.198072,0.0433 0.283482,0.0945 0.07639,0.0458 0.117716,0.13553 0.18899,0.18898 0.193471,0.14511 0.454122,0.15909 0.661458,0.28349 0.0091,0.005 0.564396,0.37687 0.566962,0.37797 0.11937,0.0512 0.258609,0.0433 0.377979,0.0945 0.104383,0.0447 0.184877,0.13264 0.28348,0.18899 0.24461,0.13977 0.50397,0.25198 0.755954,0.37797 0.125992,0.063 0.246081,0.13953 0.377976,0.18899 0.639349,0.23976 0.128421,-0.0395 0.661458,0.18899 0.258948,0.11097 0.503968,0.25198 0.755952,0.37797 0.125992,0.063 0.246081,0.13953 0.377975,0.18899 0.243203,0.0912 0.506209,0.11763 0.755955,0.18899 0.552447,0.15784 -0.0032,0.0413 0.661458,0.18899 0.313568,0.0697 0.633312,0.11108 0.944938,0.18898 0.09663,0.0242 0.186852,0.0703 0.283483,0.0945 0.155816,0.0389 0.315687,0.0596 0.472471,0.0945 0.126778,0.0282 0.251984,0.063 0.377976,0.0945 0.157491,0.0315 0.315685,0.0597 0.472469,0.0945 0.253556,0.0563 0.502399,0.13264 0.755955,0.18899 0.313568,0.0697 0.629959,0.12599 0.944938,0.18899 0.15749,0.0315 0.31347,0.0718 0.47247,0.0945 0.39682,0.22373 0.82091,0.0436 1.22842,0.0945 0.12887,0.0161 0.24911,0.0784 0.37798,0.0945 0.12502,0.0156 0.25325,-0.0178 0.37797,0 0.0986,0.0141 0.18465,0.0821 0.28349,0.0945 0.15627,0.0195 0.31576,-0.0157 0.47247,0 0.31962,0.032 0.62531,0.15703 0.94494,0.18899 0.34476,0.0345 0.69415,-0.0288 1.03943,0 0.19094,0.0159 0.37616,0.0771 0.56697,0.0945 0.15684,0.0143 0.31576,-0.0157 0.47247,0 0.15981,0.016 0.31252,0.0799 0.47247,0.0945 0.18821,0.0171 0.37863,-0.0157 0.56696,0 0.3151,0.0263 0.72303,0.13625 1.03944,0.18899 0.21969,0.0366 0.44132,0.0606 0.66145,0.0945 0.84246,0.12961 0.5713,0.13251 1.7009,0.18899 0.25167,0.0126 0.50396,0 0.75595,0 0.56696,0 1.13393,0 1.70089,0 0.18899,0 0.37798,0 0.56697,0 0.12599,0 0.2526,-0.0125 0.37797,0 0.19065,0.0191 0.37668,0.0721 0.56697,0.0945 0.34552,0.0406 0.69325,0.0599 1.03943,0.0945 0.28381,0.0284 0.56621,0.0708 0.85045,0.0945 0.47188,0.0393 0.94494,0.063 1.41741,0.0945 0.47247,0.0315 0.94438,0.073 1.41741,0.0945 0.22026,0.01 0.44097,0 0.66146,0 0.78745,0 1.5749,0 2.36235,0 1.13393,0 2.26786,0 3.40179,0 1.07093,0 2.14186,0 3.21279,0 0.50397,0 1.00834,0.0201 1.51191,0 0.53596,-0.0214 1.07186,-0.0499 1.6064,-0.0945 0.22195,-0.0185 0.44056,-0.066 0.66145,-0.0945 0.75557,-0.0975 1.50962,-0.20951 2.26786,-0.28348 1.43432,-0.13993 1.3162,-0.02 2.45685,-0.18899 0.56857,-0.0842 1.13231,-0.19925 1.70089,-0.28348 0.28214,-0.0418 0.56696,-0.063 0.85045,-0.0945 0.44097,-0.063 0.88239,-0.12291 1.32291,-0.18899 0.90655,-0.13598 0.60932,-0.1412 1.88988,-0.28348 2.16618,-0.24069 0.43231,-0.0251 1.88988,-0.0945 2.40074,-0.11432 0.23326,-0.08 2.74033,-0.18899 2.02682,-0.0881 -1.03036,0.19231 2.26786,-0.0945 0.63461,-0.0552 1.25603,-0.2201 1.88988,-0.28348 0.21939,-0.0219 0.44153,0.0157 0.66146,0 0.22215,-0.0159 0.44045,-0.0669 0.66146,-0.0945 0.53499,-0.0669 1.0714,-0.12211 1.60639,-0.18899 0.66302,-0.0829 1.32233,-0.1932 1.98438,-0.28348 1.83665,-0.25045 -0.61504,0.0996 2.07887,-0.18898 1.38719,-0.14863 0.92027,-0.12437 1.79539,-0.28349 0.1885,-0.0343 0.37759,-0.0654 0.56696,-0.0945 0.22013,-0.0339 0.44368,-0.0478 0.66146,-0.0945 0.22422,-0.048 0.43724,-0.14094 0.66146,-0.18898 0.21778,-0.0467 0.44097,-0.063 0.66145,-0.0945 0.25199,-0.063 0.50198,-0.13456 0.75596,-0.18899 1.09313,-0.23424 0.021,0.0525 1.22842,-0.18898 0.53949,-0.1079 0.8937,-0.23833 1.41741,-0.37798 1.83453,-0.48921 -0.24961,0.0983 1.41741,-0.37798 0.22049,-0.063 0.43724,-0.14094 0.66146,-0.18898 0.21778,-0.0467 0.44368,-0.0478 0.66146,-0.0945 0.22422,-0.048 0.43989,-0.1299 0.66146,-0.18899 0.50193,-0.13385 1.00793,-0.25198 1.5119,-0.37797 0.25198,-0.063 0.50017,-0.14385 0.75595,-0.18899 0.28089,-0.0496 0.56956,-0.0449 0.85045,-0.0945 0.25579,-0.0451 0.50312,-0.1295 0.75595,-0.18899 0.28268,-0.0665 0.56697,-0.12599 0.85045,-0.18899 0.56696,-0.12599 1.13393,-0.25199 1.70089,-0.37798 0.28348,-0.063 0.56872,-0.11855 0.85045,-0.18898 0.22246,-0.0556 0.43899,-0.13338 0.66146,-0.18899 0.28172,-0.0704 0.56696,-0.126 0.85044,-0.18899 0.28348,-0.063 0.564,-0.14125 0.85045,-0.18899 0.28134,-0.0469 0.56717,-0.0612 0.85045,-0.0945 0.2522,-0.0297 0.50423,-0.0609 0.75595,-0.0945 0.22077,-0.0294 0.44367,-0.0478 0.66146,-0.0945 0.22421,-0.0481 0.43802,-0.13743 0.66145,-0.18899 0.18669,-0.0431 0.37798,-0.063 0.56697,-0.0945 0.59771,-0.0996 1.19918,-0.17508 1.79539,-0.28348 0.31603,-0.0575 0.62995,-0.126 0.94494,-0.18899 0.31497,-0.063 0.63137,-0.11931 0.94494,-0.18899 0.12677,-0.0282 0.2489,-0.0802 0.37797,-0.0945 0.31306,-0.0348 0.63153,0.0314 0.94494,0 1.4719,-0.14719 -0.23914,-0.0231 0.75596,-0.18898 0.0932,-0.0155 0.18898,0 0.28348,0 0.15749,0 0.31498,0 0.47247,0"
       id="path39"
       inkscape:connector-curvature="0" />
 
</svg>
