<?xml version="1.0" encoding="UTF-8" standalone="no"?>
<!-- Created with Inkscape (http://www.inkscape.org/) -->

<svg
   xmlns:dc="http://purl.org/dc/elements/1.1/"
   xmlns:cc="http://creativecommons.org/ns#"
   xmlns:rdf="http://www.w3.org/1999/02/22-rdf-syntax-ns#"
   xmlns:svg="http://www.w3.org/2000/svg"
   xmlns="http://www.w3.org/2000/svg"
   xmlns:sodipodi="http://sodipodi.sourceforge.net/DTD/sodipodi-0.dtd"
   xmlns:inkscape="http://www.inkscape.org/namespaces/inkscape"
   width="210mm"
   height="297mm"
   viewBox="0 0 210 297"
   version="1.1"
   id="svg8"
   inkscape:version="0.92.4 (5da689c313, 2019-01-14)"
   sodipodi:docname="drawing2.svg">
  <defs
     id="defs2" />
  <sodipodi:namedview
     id="base"
     pagecolor="#ffffff"
     bordercolor="#666666"
     borderopacity="1.0"
     inkscape:pageopacity="0.0"
     inkscape:pageshadow="2"
     inkscape:zoom="0.98994949"
     inkscape:cx="633.1408"
     inkscape:cy="518.31401"
     inkscape:document-units="mm"
     inkscape:current-layer="layer1"
     showgrid="false"
     inkscape:window-width="1823"
     inkscape:window-height="1607"
     inkscape:window-x="2754"
     inkscape:window-y="835"
     inkscape:window-maximized="0" />
  <metadata
     id="metadata5">
    <rdf:RDF>
      <cc:Work
         rdf:about="">
        <dc:format>image/svg+xml</dc:format>
        <dc:type
           rdf:resource="http://purl.org/dc/dcmitype/StillImage" />
        <dc:title></dc:title>
      </cc:Work>
    </rdf:RDF>
  </metadata>

    <path
       sodipodi:type="spiral"
       style="fill:none;fill-rule:evenodd;stroke:#000000;stroke-width:0.26458332"
       id="path3725"
       sodipodi:cx="72.162773"
       sodipodi:cy="72.226326"
       sodipodi:expansion="1"
       sodipodi:revolution="9"
       sodipodi:radius="62.407288"
       sodipodi:argument="-18.027811"
       sodipodi:t0="0.1"
       d="m 78.287121,73.425935 c -0.07346,3.992815 -3.825436,6.840381 -7.657181,6.625946 -4.919171,-0.27529 -8.376704,-4.93091 -7.99393,-9.691613 0.469972,-5.845218 6.037067,-9.917011 11.726046,-9.361913 6.771263,0.660701 11.459734,7.14362 10.729896,13.760478 -0.84902,7.697378 -8.25043,13.004034 -15.794911,12.097879 C 60.673471,85.82095 54.747625,77.499294 55.831179,69.027369 57.052598,59.477536 66.295717,52.931792 75.694954,54.193524 86.171111,55.59982 93.337269,65.765279 91.896782,76.091732 90.306189,87.494262 79.217734,95.281223 67.964142,93.661543 55.635197,91.887092 47.227133,79.875142 49.026349,67.694471 50.984312,54.439075 63.920151,45.40967 77.027853,47.388694 91.209727,49.529898 100.86066,63.389937 98.701613,77.424631 96.37739,92.533009 81.592896,102.80563 66.631244,100.46637 50.596341,97.959312 39.701903,82.250155 42.221518,66.361572 44.911267,49.400127 61.545261,37.883766 78.360752,40.583863 96.248754,43.456175 108.38713,61.01515 105.50644,78.757529 102.45168,97.572102 83.967595,110.33257 65.298345,107.2712 45.557189,104.03407 32.174569,84.624779 35.416687,65.028673 38.836106,44.360925 59.170701,30.35609 79.69365,33.779032 101.288,37.380669 115.9151,58.640647 112.31127,80.090428 108.52748,102.61139 86.342049,117.86079 63.965447,114.07604 40.517871,110.11013 24.646117,86.99919 28.611856,63.695775 32.75982,39.321576 56.796329,22.827442 81.026549,26.974202 106.32738,31.304185 123.44392,56.266308 119.11611,81.423326 114.60414,107.65079 88.716357,125.38977 62.632548,120.88087 35.47845,116.18695 17.117002,89.373471 21.807026,62.362876 26.682865,34.282136 54.422072,15.298203 82.359448,20.169371 111.36683,25.227106 130.97327,53.892074 125.92094,82.756225 120.68133,112.69026 91.090572,132.91922 61.299649,127.6857 30.438961,122.26424 9.5874606,91.747668 15.002195,61.029978 20.605481,29.242634 52.047892,7.7685788 83.692346,13.36454 c 32.714004,5.785099 54.810624,38.153369 49.033424,70.724584 -2.27743,12.839848 -8.67801,24.795266 -18.0671,33.840246" />
</svg>
